<?xml version="1.0" encoding="utf-8"?>
<!-- Generator: Adobe Illustrator 19.0.0, SVG Export Plug-In . SVG Version: 6.00 Build 0)  -->
<svg version="1.1" id="_x31_3f95f58-9b10-4e82-b9a2-2634369cd5bb"
	 xmlns="http://www.w3.org/2000/svg" xmlns:xlink="http://www.w3.org/1999/xlink" x="0px" y="0px" viewBox="-119 -8.8 1041 817.8"
	 style="enable-background:new -119 -8.8 1041 817.8;" xml:space="preserve">
<style type="text/css">
	.st0{opacity:0.1;fill:#6C63FF;enable-background:new    ;}
	.st1{fill:url(#SVGID_1_);}
	.st2{fill:#4E5A86;}
	.st3{fill:#FFFFFF;}
	.st4{fill:url(#SVGID_2_);}
	.st5{fill:#B0605D;}
	.st6{opacity:0.1;enable-background:new    ;}
	.st7{fill:#FFB9B9;}
	.st8{opacity:5.000000e-02;enable-background:new    ;}
	.st9{fill:#FFD6EF;}
	.st10{fill:#CDD0DB;}
	.st11{fill:#9DA7C0;}
	.st12{fill:none;stroke:#535461;stroke-width:2;stroke-miterlimit:10;}
	.st13{fill:#267DF4;}
	.st14{opacity:0.2;fill:#FFFFFF;enable-background:new    ;}
</style>
<title>online world</title>
<path class="st0" d="M389.3,62.9C352,58.4,317.2,44.7,282,33.1c-39.1-12.8-79-23.2-119.5-30.9C119.4-6,75-11.4,31.7-7.6
	S-53.6,10.1-81.2,35.3c-46.7,42.8-42.8,107.8-27.3,165c18.3,67.9,49.9,135,101.7,192.8c36.8,41.1,83,76.7,128.8,112
	c25.9,19.9,52,40,82.2,55.7c28.1,14.6,59.2,25,90,35.3c32.9,11,65.9,22.1,99.9,30.5c108.5,26.8,222.7,26,334.4,23.6
	c39.3-0.8,80.4-2.2,113.3-17.5c25.7-12,44-31.4,57.9-52.2c18.2-27.2,29.6-59.6,16.7-89.9c-19-44.7-84.1-71-105.8-115
	c-27.8-56.5,26.2-116.1,10.9-174.9c-6.3-24.4-24.3-46.6-43.2-67.2C733,84.4,672.9,39.6,592,46.1C523.5,51.7,461.1,71.5,389.3,62.9z"
	/>
<linearGradient id="SVGID_1_" gradientUnits="userSpaceOnUse" x1="162.51" y1="-23.3301" x2="162.51" y2="723.81" gradientTransform="matrix(-1 0 0 -1 541.33 759.2399)">
	<stop  offset="0" style="stop-color:#808080;stop-opacity:0.25"/>
	<stop  offset="0.54" style="stop-color:#808080;stop-opacity:0.12"/>
	<stop  offset="1" style="stop-color:#808080;stop-opacity:0.1"/>
</linearGradient>
<path class="st1" d="M222.3,35.4h313c17.1,0,30.9,13.8,31,30.9v685.3c-0.1,17.1-13.9,30.9-31,30.9h-313c-17.1,0-30.9-13.8-31-30.9
	V66.3C191.4,49.2,205.2,35.4,222.3,35.4z"/>
<path class="st2" d="M536.6,779.7H221c-14.8,0-26.9-12-26.9-26.9V68c0-14.8,12-26.9,26.9-26.9h315.5c14.8,0,26.9,12,26.9,26.9v684.8
	C563.5,767.7,551.4,779.7,536.6,779.7z"/>
<rect x="221.4" y="109.9" class="st3" width="314.9" height="601.2"/>
<circle class="st3" cx="416" cy="75.5" r="2.9"/>
<path class="st3" d="M400.7,78.4h-61c-0.6,0-1-0.4-1-1v-3.7c0-0.6,0.4-1,1-1h61c0.6,0,1,0.4,1,1v3.7
	C401.7,77.9,401.3,78.4,400.7,78.4z"/>
<circle class="st3" cx="380.2" cy="739.6" r="20"/>
<ellipse class="st0" cx="363.8" cy="760" rx="254" ry="49"/>
<rect x="257.3" y="203" class="st0" width="243" height="325"/>
<linearGradient id="SVGID_2_" gradientUnits="userSpaceOnUse" x1="453.5559" y1="231.2599" x2="453.5559" y2="545.835" gradientTransform="matrix(1 0 0 -1 -79.52 759.2399)">
	<stop  offset="0" style="stop-color:#808080;stop-opacity:0.25"/>
	<stop  offset="0.54" style="stop-color:#808080;stop-opacity:0.12"/>
	<stop  offset="1" style="stop-color:#808080;stop-opacity:0.1"/>
</linearGradient>
<path class="st4" d="M465.4,360.5c-0.6-0.7-1.2-1.3-1.8-2c4.8-5.5,9.8-11.1,9.8-18.2c0-8.6-7.7-15.1-10.5-23.2
	c-3.9-11,1.5-22.8,3.7-34.3c3.5-18.8-1.6-38.3-13.9-52.9c-2.2-2.6-4.8-5.2-8.2-6.2c-5-1.6-10.4,0.6-15.7,1.3
	c-17.4,2.1-33.2-12.8-50.7-11.5c-1.2,0-2.3,0.3-3.4,0.8c-2.3,1.1-3.5,3.5-4.9,5.5c-5.4,8-14.5,12-23.6,16c-1.1,0.3-2.2,0.8-3.2,1.5
	c-2.7,1.3-5.4,2.6-7.9,4.1c-12.6,7.6-14.6,17.2-10.7,25.3l0,0c1.5,3,3.6,5.6,6.1,7.8c-0.1,0.5-0.2,1-0.4,1.5
	c-2.6,9.2-11.6,17.5-9.9,27.1c0.4,1.9,1,3.7,2,5.3l0,0c2.7,4.8,7.1,9,8.8,14.2l0,0c0.2,0.5,0.3,1.1,0.4,1.6
	c0.9,4.6-0.5,8.9-2.5,13.3c-19.2,4.4-40.8,12.6-42.5,27c-2.9,25.1-11.8,94.3-11.8,94.3s-5.9,32,8.3,35.9c4.5,1.2,11-0.4,20.3-6.7
	l-0.5,1.5c-0.1,0.3-0.2,0.7-0.3,1c-4.1,12.3-7.4,24.8-9.8,37.5h137.6c-1.2-8-3-15.9-5.4-23.6c-0.2-0.6-0.3-1.1-0.5-1.5
	c3.9,1.7,7.9,3.1,12,4.3c5.1,1.5,9.1,1.5,12.4,0.5l0,0C460.8,504.2,462,488,462,488l5.1-39.3l6.1-58.6c0.9-2.5,1.4-5.2,1.3-7.9
	C474.6,376.5,472.7,368.9,465.4,360.5z M360.9,323.6c0.1-0.7,0.1-1.4,0.2-2l0.2,0.1c0,0.7-0.1,1.3-0.1,1.9c0,0,0,0.1,0,0.1
	c-0.2,2-0.6,4.1-1.3,6C360.3,327.7,360.7,325.7,360.9,323.6z M430.3,465.4L430.3,465.4c-3.1,1.4-7.2-0.6-7.2-0.6
	c0.3,0.6,0.7,1.3,1,1.9c0,0,0,0,0,0.1l-0.2-0.1l0,0l-2.3-1.2c1-4.8,2.5-9.4,4.6-13.7c1.8-3.6,3.4-7.4,4.8-11.2l0,0
	c0.6-1.7,1.1-3.2,1.5-4.6c-0.1,6.3,0.2,12.6,0.9,18.9C434.3,461.6,432.6,464.4,430.3,465.4z"/>
<path class="st5" d="M336.3,245.6c-3.3,2.2-6.7,4.8-7.9,8.6c-1.9,6.1,2.8,12.2,3.3,18.6c0.8,11.6-12.3,21.2-10.3,32.6
	c1.3,7.9,9.4,13.2,10.9,21c2.3,11.4-10.1,21.5-9.1,33c0.5,6.2,4.8,11.4,9.7,15.2c6.8,5.3,15,8.7,23.6,9.7
	c-0.6-9.9-7.9-18.9-6.7-28.8c0.9-6.8,5.6-12.3,8.4-18.5c4.8-10.9,3.3-23.6,0.4-35.2c-2.9-11.6-7.1-23.1-7.3-35
	c-0.1-7.2,3.2-17.8,0.8-24.6C349.1,234,341.9,241.8,336.3,245.6z"/>
<path class="st6" d="M337.3,243.6c-3.3,2.2-6.7,4.8-7.9,8.6c-1.9,6.1,2.8,12.2,3.3,18.6c0.8,11.6-12.3,21.2-10.3,32.6
	c1.3,7.9,9.4,13.2,10.9,21c2.3,11.4-10.1,21.5-9.1,33c0.5,6.2,4.8,11.4,9.7,15.2c6.8,5.3,15,8.7,23.6,9.7
	c-0.6-9.9-7.9-18.9-6.7-28.8c0.9-6.8,5.6-12.3,8.4-18.5c4.8-10.9,3.3-23.6,0.4-35.2c-2.9-11.6-7.1-23.1-7.3-35
	c-0.1-7.2,3.2-17.8,0.8-24.6C350.1,232,342.9,239.8,337.3,243.6z"/>
<path class="st7" d="M347.9,393.9c0,0-53-54-13-50c9.1,0.9,15.2-0.7,19.3-3.8c4.6-3.5,6.6-8.8,7.1-14.3c1.1-11-3.4-23-3.4-23
	s54-43,43,11c-1.2,5.5-1.9,11.1-2.1,16.7c-0.2,11.5,3.6,15.9,8.9,17.7c8.9,3,22.2-1.2,28.2,8.7C446.9,374.9,347.9,393.9,347.9,393.9
	z"/>
<path class="st8" d="M400.9,313.9c-1.2,5.5-1.9,11.1-2.1,16.7c-1.4,0.5-2.9,0.9-4.4,1.2c-11.4,2.6-23.3,0.4-33.1-6
	c1.1-11-3.4-23-3.4-23S411.9,259.9,400.9,313.9z"/>
<path class="st7" d="M427.9,287.9c0,23.7-19.3,43-43,43s-43-19.3-43-43c0-0.8,0-1.6,0.1-2.4c1.4-23.7,21.7-41.8,45.4-40.5
	C410.1,246.4,427.9,265.2,427.9,287.9z"/>
<path class="st8" d="M347.9,393.9c0,0-53-54-13-50c9.1,0.9,15.2-0.7,19.3-3.8c-7.7,12.8-16.5,35.9,22.7,33.8
	c35.8-2,35.2-16.3,30.8-25.7c8.9,3,22.2-1.2,28.2,8.7C446.9,374.9,347.9,393.9,347.9,393.9z"/>
<path class="st9" d="M470.8,391.8c-0.2,0.7-0.6,1.4-0.9,2.1l-13.6,10.4l-1.7,1.3l0,0l-22.7,17.3c0,0,2.1,3.6-0.9,14.3
	c-1.6,5.4-3.6,10.7-6.1,15.7c-2.1,4.3-3.6,8.9-4.5,13.6c0,0.1,0,0.1,0,0.2c-0.2,0.9-0.3,1.7-0.4,2.6c-1.3,8.5-1,17.2,0.7,25.6
	c0,0.1,0,0.2,0.1,0.3c0.5,2.3,0.9,3.8,1.1,4.4l0.1,0.3c0,0,0.5,1.3,1.2,3.5l0.1,0.2c2.6,7.9,4.4,16.1,5.7,24.3H294.7
	c2.4-12.7,5.7-25.3,9.8-37.6l0.5-1.5c-0.8,0.6-1.6,1.1-2.4,1.6c-9.3,5.8-15.5,6.5-19.5,4.2c-11.3-6.3-6.1-34.8-6.1-34.8
	s8.6-68.7,11.5-93.5c1.6-14.3,22.8-22.4,41.5-26.8c9.5-2.2,19.1-3.8,28.8-4.7h0.2c0,0-0.3,0.3-0.8,1l-0.1,0.1
	c-0.3,0.5-0.8,1-1.3,1.8l0,0l0,0c-3.3,4.5-6.1,9.4-8.2,14.6l0,0c-3.1,8.2-3.6,17.1,5.4,21.6c4.6,2.3,11.6,3.5,21.9,2.9
	c16-0.9,24.7-4.2,29.1-8.5c1.9-1.7,3.1-4,3.6-6.5l0,0c1.2-6.1-2.5-12.5-5.1-16.1l0,0c-0.7-1-1.5-1.9-2.3-2.8l0,0l26.2,1.9
	c12.8,0.8,24.9,6.4,33.9,15.6c0.6,0.6,1.2,1.3,1.8,2C474.6,375.8,472.5,387.2,470.8,391.8z"/>
<path class="st8" d="M313.9,389.9c0,0,2,16-2,21s-5,28,0,42L313.9,389.9z"/>
<path class="st10" d="M322.6,423.9h60.5c2.1,0,3.8,1.7,3.8,3.8v20.5c0,2.1-1.7,3.8-3.8,3.8h-60.5c-2.1,0-3.8-1.7-3.8-3.8v-20.5
	C318.9,425.6,320.6,423.9,322.6,423.9z"/>
<path class="st8" d="M322.6,423.9h60.5c2.1,0,3.8,1.7,3.8,3.8v20.5c0,2.1-1.7,3.8-3.8,3.8h-60.5c-2.1,0-3.8-1.7-3.8-3.8v-20.5
	C318.9,425.6,320.6,423.9,322.6,423.9z"/>
<path class="st10" d="M322.6,424.9h60.5c2.1,0,3.8,1.7,3.8,3.8v20.5c0,2.1-1.7,3.8-3.8,3.8h-60.5c-2.1,0-3.8-1.7-3.8-3.8v-20.5
	C318.9,426.6,320.6,424.9,322.6,424.9z"/>
<circle class="st11" cx="372.4" cy="438.4" r="3"/>
<path class="st8" d="M290,468.3c1.8-5.4,6-9.8,11.3-11.9c3.4-1.4,7.6-4,9.7-8.7c3.9-8.7,10.9-17.7,28.9-11.7s-5,10-5,10s41-6,25,6
	c-16,12-36,19-36,19l-9.8,10.4c-6,6.4-16.4,6.3-22-0.4C289.5,477.9,288.2,473.7,290,468.3z"/>
<path class="st7" d="M289,466.3c1.8-5.4,6-9.8,11.3-11.9c3.4-1.4,7.6-4,9.7-8.7c3.9-8.7,10.9-17.7,28.9-11.7s-5,10-5,10s41-6,25,6
	s-36,19-36,19l-9.9,10.4c-6,6.4-16.4,6.3-22-0.4C288.5,475.9,287.2,471.7,289,466.3z"/>
<path class="st8" d="M429.9,486.9l-7,17l-9-6.6l-25-18.4l-17-11c-24-18,0-21,0-21c-9-4,0-8,0-8c32-7,26,19,26,19l20.3,10.5l6.7,3.5
	L429.9,486.9z"/>
<path class="st7" d="M431.9,484.9l-7,17l-9-6.6l-25-18.4l-17-11c-24-18,0-21,0-21c-9-4,0-8,0-8c32-7,26,19,26,19l20.3,10.5l6.7,3.5
	L431.9,484.9z"/>
<path class="st8" d="M431.9,484.9l-7,17l-9-6.6c8.1,0.3,17.7-3.6,4.2-28.9l6.7,3.5L431.9,484.9z"/>
<path class="st9" d="M468.9,383.9l1.9,7.9l-5.9,58.1l-5,39c0,0-2,26-25,19s-25-14-25-14s33,11,12-28c0,0,12,6,10-10s0-44,0-44
	L468.9,383.9z"/>
<path class="st8" d="M427.9,287.9c0,20.1-13.9,37.5-33.5,41.9c-1.4-4.2-2.5-8.3-1.4-12.5c2-8.2,11.5-14.1,10.4-22.5
	c-0.1-0.9-0.4-1.8-1-2.6c-2.1-2.8-6.4-1.4-9.8-0.7c-8.8,1.8-18.5-4.2-20.9-12.9c-7.8,7.7-19.3,10.4-29.7,6.9
	c1.4-23.7,21.7-41.8,45.4-40.5C410,246.4,427.8,265.2,427.9,287.9L427.9,287.9z"/>
<path class="st5" d="M372.7,276.6c2.4,8.7,12.1,14.7,20.9,12.9c3.4-0.7,7.7-2.1,9.8,0.7c0.5,0.8,0.9,1.7,1,2.6
	c1.1,8.4-8.4,14.3-10.4,22.5c-2.1,8.4,4,16.5,5.3,25.1c0.7,4.7,0,9.5,0,14.2s1.1,9.8,4.6,13c3.5,3.2,10,3.2,12.4-0.9
	c11.2,6,6.8,24.4,15.3,33.8c4.7,5.2,12.5,6.5,19.5,5.8c1.6,0,3.2-0.5,4.6-1.5c1.2-1.1,1.9-2.6,2.2-4.2c1.8-6.7,1.5-13.7-0.9-20.2
	c-1.1-3.1-2.7-6.2-2.3-9.5c0.3-2.6,1.8-4.8,3.5-6.8c5.4-6.7,12.7-13.1,12.7-21.7s-7.5-15-10.2-23c-3.8-10.9,1.5-22.6,3.6-34
	c3.4-18.6-1.6-37.9-13.6-52.5c-2.2-2.6-4.7-5.1-8-6.2c-4.9-1.6-10.2,0.6-15.3,1.3c-17,2.1-32.4-12.7-49.5-11.4
	c-1.1,0-2.2,0.3-3.3,0.8c-2.2,1.1-3.4,3.4-4.8,5.5c-7.5,11.2-22.3,14.5-33.9,21.4C302,264.7,346.8,301.6,372.7,276.6z"/>
<path class="st12" d="M579.1,771.4c0,0-14.5-73.4,15.3-123.6c12.6-21,18.1-45.5,15.6-69.9c-1.3-11.6-3.6-23-7-34.1"/>
<path class="st13" d="M621.6,511.9c-0.8,8.8-19,32.7-19,32.7s-13.5-26.8-12.7-35.6c0.6-8.8,8.2-15.4,17-14.8
	c8.8,0.6,15.4,8.2,14.8,17C621.7,511.4,621.7,511.6,621.6,511.9L621.6,511.9z"/>
<path class="st13" d="M643.4,562.8c-5.4,6.9-33.7,17.1-33.7,17.1s3.2-29.9,8.7-36.8c5.7-6.7,15.8-7.4,22.4-1.7
	C647.1,546.8,648.2,556.1,643.4,562.8L643.4,562.8z"/>
<path class="st13" d="M634.6,645.5c-8.2,3.2-37.7-2.2-37.7-2.2s17.9-24.2,26.1-27.4c8.2-3.1,17.4,1.1,20.5,9.3
	C646.5,633.2,642.6,642.2,634.6,645.5z"/>
<path class="st13" d="M613.9,706.6c-7.5,4.6-37.6,4.2-37.6,4.2s13.5-26.8,21.1-31.4c7.4-4.7,17.3-2.4,22,5s2.4,17.3-5,22
	C614.2,706.5,614.1,706.6,613.9,706.6L613.9,706.6z"/>
<path class="st13" d="M576.3,578.5c5.7,6.7,34.4,15.7,34.4,15.7s-4.5-29.7-10.2-36.4c-5.6-6.8-15.7-7.7-22.4-2.1
	c-6.8,5.6-7.7,15.7-2.1,22.4C576.1,578.3,576.2,578.4,576.3,578.5z"/>
<path class="st13" d="M552.9,650.3c7.5,4.7,37.5,4.7,37.5,4.7s-13.2-27-20.6-31.7c-7.4-4.8-17.2-2.6-22,4.8
	c-4.8,7.4-2.6,17.2,4.8,22C552.7,650.2,552.8,650.2,552.9,650.3z"/>
<path class="st13" d="M539.8,723.2c6.6,5.8,36.2,11,36.2,11s-8.4-28.8-15-34.7c-6.5-6-16.5-5.5-22.5,0.9c-6,6.5-5.5,16.5,0.9,22.5
	C539.6,723,539.7,723.1,539.8,723.2L539.8,723.2z"/>
<path class="st13" d="M326.8,148.9c0-20.9-17-37.9-37.9-37.9H82.7c-20.9,0-37.9,17-37.9,37.9s17,37.9,37.9,37.9l172.5-0.3l39.7,34.6
	v-34.8C313.2,183.3,326.8,167.5,326.8,148.9z"/>
<circle class="st14" cx="89.2" cy="150.2" r="13.1"/>
<circle class="st14" cx="133.6" cy="150.2" r="13.1"/>
<circle class="st14" cx="178" cy="150.2" r="13.1"/>
<rect x="256.8" y="580" class="st13" width="104" height="31"/>
<rect x="395.8" y="580" class="st0" width="104" height="31"/>
</svg>
