<?xml version="1.0"?>
<svg version="1.1" xmlns="http://www.w3.org/2000/svg" width="137" height="77" style=""><path fill="#0062a8" d="M16.4892578125,58.861328125q0-0.8544921875,0.5859375-1.08642578125t1.26953125-0.23193359375q1.1962890625,0,2.0263671875,1.07421875t1.57470703125,2.35595703125t1.47705078125,2.35595703125t1.7333984375,1.07421875q0.7568359375,0,1.37939453125-0.37841796875t1.07421875-0.9521484375t0.69580078125-1.2939453125t0.244140625-1.42822265625q0-1.85546875-0.74462890625-3.8330078125t-1.904296875-4.0771484375t-2.45361328125-4.296875t-2.44140625-4.4677734375t-1.904296875-4.62646484375t-0.7568359375-4.74853515625q0-3.5888671875,2.1484375-5.56640625t5.6640625-1.9775390625q1.1962890625,0,2.4169921875,0.341796875t2.24609375,1.025390625t1.67236328125,1.6845703125t0.64697265625,2.34375q0,0.439453125-0.64697265625,0.57373046875t-0.93994140625,0.13427734375q-0.439453125,0-0.9521484375-0.10986328125t-0.6591796875-0.59814453125t-0.4150390625-1.123046875t-0.67138671875-1.18408203125t-0.9521484375-0.9521484375t-1.20849609375-0.40283203125q-1.0986328125,0-1.86767578125,0.45166015625t-1.2451171875,1.20849609375t-0.7080078125,1.69677734375t-0.23193359375,1.94091796875q0,2.34375,0.8056640625,4.72412109375t2.001953125,4.736328125t2.60009765625,4.65087890625t2.60009765625,4.4677734375t2.001953125,4.248046875t0.8056640625,3.9306640625q0,1.66015625-0.78125,2.8076171875t-1.9775390625,1.86767578125t-2.64892578125,1.0498046875t-2.84423828125,0.32958984375q-1.4892578125,0-3.0517578125-0.59814453125t-2.8076171875-1.64794921875t-2.05078125-2.45361328125t-0.8056640625-3.03955078125z M38.453857421875,53.8076171875q0-2.24609375,0.52490234375-4.40673828125t0.89111328125-4.30908203125q0.09765625-0.5615234375,0.76904296875-0.69580078125t1.13525390625-0.13427734375q0.8056640625,0,1.2939453125,0.244140625q0.1953125,0.09765625,0.3662109375,0.2197265625t0.1708984375,0.3173828125q0,2.099609375-0.50048828125,4.1015625t-0.50048828125,4.248046875q0,0.7568359375,0.10986328125,1.42822265625t0.20751953125,1.33056640625l0.146484375,0.7080078125q0,0.1953125,0.0244140625,0.341796875t0.0732421875,0.341796875q0,0.439453125-0.62255859375,0.59814453125t-1.08642578125,0.15869140625q-0.7080078125,0-1.30615234375-0.28076171875t-0.93994140625-0.96435546875l-0.341796875-0.7080078125q-0.29296875-0.5615234375-0.29296875-1.25732421875t-0.1220703125-1.28173828125z M40.016357421875,39.1103515625l0-0.4638671875q0-1.1474609375,0.57373046875-2.05078125t1.72119140625-0.9033203125q0.146484375,0,0.28076171875,0.0244140625t0.28076171875,0.0244140625q0.29296875,0.048828125,0.76904296875,0.23193359375t0.47607421875,0.57373046875l0,0.048828125q-0.09765625,0.1953125-0.1220703125,0.40283203125t-0.1220703125,0.35400390625l0.048828125-0.048828125q-0.29296875,0.7568359375-0.47607421875,1.220703125t-0.40283203125,0.74462890625t-0.54931640625,0.40283203125t-0.93994140625,0.1220703125q-0.09765625,0-0.341796875-0.0244140625t-0.52490234375-0.09765625t-0.47607421875-0.1953125t-0.1953125-0.3662109375z M49.11474609375,53.5390625q0-1.3427734375,0.25634765625-2.86865234375t0.87890625-2.79541015625t1.72119140625-2.099609375t2.8076171875-0.830078125q1.1474609375,0,2.2216796875,0.37841796875t2.0263671875,1.03759765625q0.29296875-0.48828125,0.927734375-0.59814453125t1.123046875-0.10986328125q0.1953125,0,0.54931640625,0.0244140625t0.69580078125,0.146484375t0.59814453125,0.29296875t0.30517578125,0.48828125q0.1953125,1.708984375,0.2685546875,3.40576171875t0.2197265625,3.38134765625q0.244140625,3.1494140625,0.7568359375,6.2255859375t0.5126953125,6.2255859375q0,1.4892578125-0.13427734375,3.22265625t-0.7080078125,3.21044921875t-1.67236328125,2.45361328125t-3.0517578125,0.9765625q-1.7578125,0-2.69775390625-0.62255859375t-1.69677734375-2.08740234375q0.048828125-0.48828125,0.62255859375-0.64697265625t0.98876953125-0.15869140625q0.390625,0,0.79345703125,0.0732421875t0.64697265625,0.244140625l0.6103515625,0.390625q0.9033203125-1.85546875,1.0986328125-4.052734375t0.1953125-4.248046875q0-1.708984375-0.1708984375-3.38134765625t-0.341796875-3.35693359375q-1.708984375,3.1005859375-5.2001953125,3.1005859375q-1.611328125,0-2.62451171875-0.68359375t-1.5625-1.7333984375t-0.7568359375-2.3681640625t-0.20751953125-2.63671875z M52.11767578125,53.7587890625q0,0.6103515625,0.048828125,1.57470703125t0.25634765625,1.89208984375t0.59814453125,1.59912109375t1.0986328125,0.67138671875q1.3427734375,0,2.1240234375-1.0498046875t1.23291015625-2.50244140625t0.72021484375-3.0029296875t0.68359375-2.55126953125q-0.048828125-0.341796875-0.048828125-0.67138671875l0-0.67138671875q-0.5615234375-1.0498046875-1.6357421875-1.81884765625t-2.2216796875-1.03759765625q-0.146484375-0.0244140625-0.2685546875-0.0244140625q-0.68359375,0-1.123046875,0.8056640625q-0.5615234375,0.9765625-0.87890625,2.33154296875t-0.45166015625,2.67333984375t-0.13427734375,1.7822265625z M70.005126953125,54.515625l0-0.7080078125q0-0.87890625,0.048828125-1.66015625q0.048828125-1.0986328125,0.048828125-1.806640625q0-0.390625,0.048828125-0.89111328125t0.244140625-0.79345703125q0.244140625-0.244140625,0.57373046875-0.50048828125t0.72021484375-0.25634765625q1.2451171875,0,1.953125,0.28076171875t0.7568359375,1.15966796875l0.09765625,0.7568359375q0.439453125-1.0498046875,1.171875-2.60009765625t1.69677734375-2.9541015625t2.1728515625-2.392578125t2.55126953125-0.98876953125q1.2451171875,0,2.05078125,1.171875t1.28173828125,2.99072265625t0.67138671875,4.052734375t0.2685546875,4.38232421875t0.09765625,3.91845703125t0.1708984375,2.67333984375q0.09765625,0.7568359375,0.32958984375,1.59912109375t0.23193359375,1.55029296875q0,0.1953125-0.28076171875,0.37841796875t-0.59814453125,0.30517578125t-0.64697265625,0.1953125t-0.47607421875,0.0732421875q-0.9521484375,0-1.35498046875-1.42822265625t-0.50048828125-3.57666015625t-0.09765625-4.65087890625t-0.1708984375-4.65087890625t-0.69580078125-3.57666015625t-1.67236328125-1.47705078125q-1.0498046875,0-2.1728515625,1.35498046875t-1.9287109375,3.60107421875q-0.78125,2.24609375-1.07421875,5.1025390625q-0.09765625,0.9033203125-0.09765625,1.806640625q0,1.9775390625,0.4150390625,3.955078125q0.048828125,0.341796875-0.28076171875,0.5126953125t-0.81787109375,0.2685546875t-0.98876953125,0.1220703125t-0.76904296875,0.0244140625q-0.9521484375,0-1.52587890625-0.67138671875t-0.89111328125-1.72119140625t-0.42724609375-2.35595703125t-0.13427734375-2.57568359375z M92.2138671875,41.3076171875l0-1.8798828125l0-1.9287109375q0.0244140625-1.953125,0.15869140625-3.74755859375t0.37841796875-2.99072265625q0.146484375-0.6591796875,0.87890625-0.8056640625t1.26953125-0.146484375q1.0009765625,0,1.47705078125,0.244140625t0.62255859375,0.69580078125t0.1220703125,1.07421875t-0.0244140625,1.42822265625q0,1.1474609375-0.048828125,3.1982421875t-0.0732421875,4.541015625l0,1.2451171875q0,1.8798828125,0.048828125,3.8818359375q0.0732421875,2.685546875,0.28076171875,5.13916015625t0.57373046875,4.4189453125t1.025390625,3.01513671875q1.0498046875-0.9521484375,2.099609375-2.67333984375t2.001953125-3.86962890625t1.81884765625-4.52880859375t1.57470703125-4.65087890625t1.20849609375-4.2724609375t0.74462890625-3.3935546875q0.390625-2.001953125,0.52490234375-4.0771484375t0.13427734375-4.6142578125q0.7568359375-0.9033203125,1.171875-1.13525390625t1.318359375-0.23193359375q0.439453125,0,0.89111328125,0.0732421875t0.86669921875,0.341796875l0.341796875,0.537109375l0,0.6103515625q0,4.443359375-0.42724609375,9.02099609375t-0.9033203125,9.2041015625t-0.9033203125,9.27734375t-0.42724609375,9.24072265625q0,0.7080078125,0.06103515625,1.50146484375t0.25634765625,1.50146484375l-0.09765625,0.29296875q-0.341796875,0.5615234375-1.123046875,0.7080078125t-1.3427734375,0.146484375q-1.1962890625,0-1.79443359375-0.35400390625t-0.79345703125-0.9765625t-0.1708984375-1.4404296875t0.0244140625-1.77001953125q0-3.2958984375,0.29296875-6.70166015625t0.7080078125-6.70166015625q-0.390625,1.1474609375-0.927734375,2.77099609375t-1.25732421875,3.2470703125t-1.67236328125,2.978515625t-2.099609375,1.94091796875l0.048828125-0.048828125l-0.1953125,0.09765625l0.048828125,0q-0.7080078125,0.390625-1.30615234375,0.52490234375t-1.40380859375,0.13427734375q-1.611328125,0-2.67333984375-0.9521484375t-1.72119140625-2.45361328125t-0.9765625-3.369140625t-0.45166015625-3.74755859375t-0.13427734375-3.57666015625l0-2.79541015625q0-1.3427734375-0.0244140625-3.1982421875z M100.9052734375,60.7412109375q0.048828125,0,0.048828125-0.048828125l0.048828125,0q-0.048828125,0.048828125-0.09765625,0.048828125z M118.59741210938,45.5556640625q0-1.1474609375,0.45166015625-1.69677734375t1.64794921875-0.54931640625q0.7080078125,0,1.33056640625,0.29296875t0.62255859375,1.2451171875q0.09765625,1.3916015625,0.09765625,2.91748046875t0.2685546875,2.89306640625q0.6103515625-1.0009765625,1.37939453125-2.001953125t1.69677734375-1.7822265625t2.0263671875-1.25732421875t2.392578125-0.47607421875q1.7578125,0,2.978515625,0.732421875t2.01416015625,1.904296875t1.1474609375,2.64892578125t0.35400390625,2.96630859375q0,2.294921875-0.69580078125,3.74755859375t-1.84326171875,2.28271484375t-2.60009765625,1.123046875t-2.91748046875,0.29296875q-1.2939453125,0-2.4169921875-0.50048828125t-1.5625-1.89208984375q0-0.390625,0.57373046875-0.48828125t0.81787109375-0.09765625q0.8056640625,0,1.1962890625,0.439453125q0.29296875,0.341796875,0.64697265625,0.69580078125t0.74462890625,0.35400390625q0.7568359375,0,1.5869140625-0.42724609375t1.52587890625-1.123046875t1.171875-1.64794921875t0.47607421875-1.953125q0-0.8544921875-0.146484375-2.1240234375t-0.50048828125-2.44140625t-0.9765625-2.0263671875t-1.57470703125-0.8544921875q-1.4404296875,0-2.60009765625,1.318359375t-1.9287109375,3.173828125t-1.1962890625,3.857421875t-0.42724609375,3.3447265625t0.1708984375,3.3935546875t0.35400390625,4.26025390625t0.35400390625,4.26025390625t0.1708984375,3.3935546875q0,0.341796875-0.28076171875,0.54931640625t-0.67138671875,0.32958984375t-0.79345703125,0.146484375t-0.59814453125,0.0244140625q-0.6591796875,0-1.37939453125-0.146484375t-0.98876953125-0.9033203125q-0.341796875-1.1962890625-0.634765625-3.40576171875t-0.52490234375-4.8828125t-0.40283203125-5.615234375t-0.29296875-5.67626953125t-0.18310546875-5.0048828125t-0.06103515625-3.61328125z"/><path fill="#" d=""/></svg>
